<svg height="512pt" viewBox="0 0 512 512.00075" width="512pt" xmlns="http://www.w3.org/2000/svg"><path d="m105.386719 389.53125 53.695312 107.46875 36.9375-73.921875 36.9375 73.921875 49.453125-99.851562 98.691406-98.757813c32.46875-32.488281 50.710938-76.554687 50.710938-122.503906v-21.757813h-150.234375zm0 0" fill="#a15615"/><path d="m336.246094 343.273438 44.855468-44.882813c32.46875-32.488281 50.707032-76.554687 50.707032-122.503906v-21.757813h-95.558594v189.144532zm0 0" fill="#783207"/><path d="m43.378906 412.382812h-28.378906c-5.628906 0-10.785156-3.152343-13.351562-8.160156-2.566407-5.011718-2.109376-11.039062 1.183593-15.605468l194.535157-270.039063c2.820312-3.910156 7.351562-6.230469 12.171874-6.230469h165.457032c5.726562 0 10.957031 3.261719 13.472656 8.40625 2.519531 5.148438 1.886719 11.277344-1.628906 15.800782l-135.507813 174.335937c-24.5625 31.449219-56.464843 57.296875-92.28125 74.773437-35.820312 17.480469-75.820312 26.71875-115.671875 26.71875zm0 0" fill="#cc8135"/><path d="m43.378906 412.382812h-28.378906c-5.628906 0-10.785156-3.152343-13.351562-8.160156-2.566407-5.011718-2.109376-11.039062 1.183593-15.605468l194.535157-270.039063c2.8125-3.898437 7.324218-6.21875 12.136718-6.230469l75.453125-.1875c5.644531-.023437 10.84375 3.15625 13.410157 8.203125 2.5625 5.042969 2.070312 11.101563-1.273438 15.667969l-175.550781 239.421875c-16.203125 22.042969-41.648438 35.121094-71.65625 36.84375-.230469.011719-.460938.019531-.691407.023437l-5.648437.0625c-.054687 0-.113281 0-.167969 0zm0 0" fill="#f2984e"/><path d="m312.957031 512h-80c-8.28125 0-15-6.714844-15-15s6.71875-15 15-15h80c8.285157 0 15 6.714844 15 15s-6.714843 15-15 15zm0 0" fill="#f7a520"/><path d="m239.1875 512h-80c-8.28125 0-15-6.714844-15-15s6.71875-15 15-15h80c8.285156 0 15 6.714844 15 15s-6.714844 15-15 15zm0 0" fill="#ffcf2c"/><path d="m334.652344 239.136719c-.078125 0-.15625 0-.234375-.003907-4.398438-.066406-8.546875-2.066406-11.34375-5.460937l-54.230469-65.863281c-4.953125-6.015625-4.476562-14.816406 1.089844-20.261719l54.671875-53.449219c5.757812-5.632812 14.9375-5.710937 20.789062-.175781l56.984375 53.886719c5.863282 5.542968 6.289063 14.730468.96875 20.792968l-57.421875 65.429688c-2.847656 3.246094-6.957031 5.105469-11.273437 5.105469zm0 0" fill="#ffcf2c"/><path d="m345.394531 93.921875c-2.589843-2.449219-5.835937-3.796875-9.148437-4.050781v149.179687c3.722656-.398437 7.183594-2.175781 9.679687-5.019531l57.421875-65.429688c5.320313-6.0625 4.894532-15.25-.96875-20.792968zm0 0" fill="#f7a520"/><path d="m460.648438 66.371094c-3.839844 0-7.675782-1.464844-10.605469-4.390625-5.859375-5.855469-5.863281-15.355469-.007813-21.214844l36.347656-36.367187c5.855469-5.859376 15.351563-5.863282 21.210938-.007813s5.863281 15.355469.007812 21.214844l-36.34375 36.367187c-2.929687 2.929688-6.769531 4.398438-10.609374 4.398438zm0 0" fill="#a15615"/><path d="m473.3125 106.105469c-5.847656 0-11.40625-3.441407-13.824219-9.167969-3.222656-7.628906.351563-16.429688 7.980469-19.65625l23.6875-10.003906c7.628906-3.226563 16.429688.347656 19.652344 7.980468 3.226562 7.628907-.347656 16.429688-7.976563 19.652344l-23.6875 10.007813c-1.90625.804687-3.886719 1.1875-5.832031 1.1875zm0 0" fill="#a15615"/><path d="m404.777344 174.675781c-46.058594 0-83.527344-37.492187-83.527344-83.574219 0-46.082031 37.46875-83.574218 83.527344-83.574218s83.527344 37.492187 83.527344 83.574218c0 46.082032-37.46875 83.574219-83.527344 83.574219zm0 0" fill="#542000"/><path d="m211.878906 66.371094c-3.839844 0-7.679687-1.46875-10.609375-4.398438l-36.34375-36.367187c-5.855469-5.863281-5.855469-15.359375.007813-21.214844 5.859375-5.855469 15.355468-5.855469 21.210937.007813l36.34375 36.367187c5.859375 5.859375 5.855469 15.359375-.003906 21.214844-2.929687 2.925781-6.765625 4.390625-10.605469 4.390625zm0 0" fill="#a15615"/><path d="m198.589844 106.105469c-1.992188 0-4.015625-.398438-5.960938-1.242188l-23.0625-10.007812c-7.601562-3.296875-11.089844-12.128907-7.792968-19.730469 3.296874-7.601562 12.128906-11.089844 19.730468-7.792969l23.0625 10.007813c7.601563 3.296875 11.089844 12.132812 7.792969 19.730468-2.453125 5.65625-7.972656 9.035157-13.769531 9.035157zm0 0" fill="#a15615"/><path d="m336.246094 43.402344c-15.105469-21.664063-40.183594-35.875-68.527344-35.875-46.058594 0-83.53125 37.492187-83.53125 83.574218 0 46.082032 37.472656 83.574219 83.53125 83.574219 28.34375 0 53.421875-14.210937 68.527344-35.871093zm0 0" fill="#783207"/></svg>