<svg height="511pt" viewBox="0 0 511.99893 511" width="511pt" xmlns="http://www.w3.org/2000/svg"><path d="m253.039062 299.628906c-6.121093 0-11.867187-3.773437-14.089843-9.851562l-22.832031-62.476563c-7.429688-20.328125-6.484376-42.328125 2.664062-61.949219 9.183594-19.691406 25.515625-34.625 45.992188-42.042968l198.265624-71.863282c7.773438-2.816406 16.359376 1.1875 19.195313 8.953126 7.429687 20.324218 6.484375 42.324218-2.664063 61.941406-8.859374 19-24.371093 33.570312-43.84375 41.234375 2.773438 16.097656.59375 32.632812-6.457031 47.753906-9.183593 19.691406-25.515625 34.625-45.992187 42.046875l-125.128906 45.351562c-1.683594.613282-3.410157.902344-5.109376.902344zm0 0" fill="#f7a520"/><path d="m392.902344 512.480469c-5.503906 0-10.800782-3.039063-13.429688-8.292969-.960937-1.925781-1.5-4.039062-1.574218-6.1875-.59375-16.914062-2.253907-33.929688-4.9375-50.566406-.226563-1.417969-.464844-2.835938-.710938-4.25-1.402344-8.164063 4.078125-15.921875 12.242188-17.324219 8.160156-1.402344 15.921874 4.074219 17.324218 12.242187.261719 1.515626.515625 3.03125.757813 4.554688 2.863281 17.746094 4.644531 35.882812 5.289062 53.914062.351563 5.816407-2.726562 11.554688-8.265625 14.324219-2.152344 1.074219-4.441406 1.585938-6.695312 1.585938zm0 0" fill="#ffe645"/><path d="m335.597656 512.476562c-8.003906 0-14.648437-6.320312-14.976562-14.390624-.480469-11.851563-1.570313-23.777344-3.242188-35.453126-1.175781-8.199218 4.519532-15.800781 12.71875-16.972656 8.207032-1.179687 15.800782 4.519532 16.976563 12.722656 1.8125 12.675782 3 25.621094 3.523437 38.484376.335938 8.277343-6.101562 15.261718-14.378906 15.597656-.207031.007812-.414062.011718-.621094.011718zm0 0" fill="#ffe645"/><path d="m47.726562.5 136.140626 272.164062-122.105469 136.609376-40 15.835937c-17.15625 6.246094-26.003907 25.214844-19.757813 42.371094 6.242188 17.15625 25.210938 26 42.367188 19.757812l294.523437-108.472656c18.160157-6.613281 27.527344-26.695313 20.914063-44.859375l-121.398438-333.40625zm0 0" fill="#ffdaab"/><path d="m359.8125 333.90625-121.402344-333.40625h-84.273437l143.242187 393.554688 41.515625-15.289063c18.160157-6.613281 27.527344-26.695313 20.917969-44.859375zm0 0" fill="#ffbe85"/><g fill="#f7a520"><path d="m156.585938 303.183594-20.886719 23.371094 63.257812 103.75 28.691407-10.570313zm0 0"/><path d="m86.597656 381.488281-20.050781 22.433594 66.304687 50.726563 33.328126-12.273438zm0 0"/><path d="m263.703125 69.960938-153.316406 55.800781 13.507812 27.007812 150.074219-54.621093zm0 0"/><path d="m241.082031 7.835938-160.46875 58.40625 13.507813 27.007812 157.226562-57.226562zm0 0"/></g><path d="m166.667969 34.925781 74.417969-27.085937 10.257812 28.191406-74.417969 27.082031zm0 0" fill="#f2860a"/><path d="m189.277344 97.054688 74.429687-27.089844 10.257813 28.191406-74.425782 27.085938zm0 0" fill="#f2860a"/><path d="m59.058594 512.183594c-6.113282 0-11.855469-3.765625-14.082032-9.835938-2.855468-7.773437 1.132813-16.394531 8.910157-19.25l326.890625-119.445312c7.773437-2.851563 16.394531 1.136718 19.25 8.910156 2.855468 7.777344-1.136719 16.394531-8.910156 19.25l-326.890626 119.445312c-1.707031.628907-3.453124.925782-5.167968.925782zm0 0" fill="#f2860a"/><path d="m307.664062 422.308594 83.453126-30.496094c7.773437-2.851562 11.765624-11.472656 8.910156-19.25-2.855469-7.773438-11.472656-11.765625-19.25-8.910156l-83.375 30.464844zm0 0" fill="#ec6600"/><path d="m277.847656 357.992188c-6.121094 0-11.867187-3.773438-14.089844-9.855469l-22.835937-62.476563c-7.429687-20.328125-6.480469-42.328125 2.664063-61.945312 9.183593-19.691406 25.515624-34.625 45.992187-42.046875l198.265625-71.863281c7.773438-2.8125 16.359375 1.191406 19.199219 8.953124 7.429687 20.328126 6.480469 42.328126-2.667969 61.945313-8.855469 19-24.371094 33.566406-43.84375 41.234375 2.773438 16.09375.59375 32.632812-6.457031 47.753906-9.183594 19.691406-25.515625 34.625-45.992188 42.046875l-125.125 45.351563c-1.6875.613281-3.414062.902344-5.109375.902344zm0 0" fill="#fff566"/><path d="m293.195312 282.84375c-25.96875 9.453125-39.34375 38.1875-29.859374 64.144531l.421874 1.148438c2.222657 6.082031 7.96875 9.855469 14.089844 9.855469 1.695313 0 3.421875-.292969 5.109375-.902344l125.128907-45.355469c20.476562-7.421875 36.808593-22.351563 45.992187-42.042969 7.050781-15.121094 9.226563-31.660156 6.457031-47.753906zm0 0" fill="#ffcf2c"/></svg>