<svg height="512pt" viewBox="0 -18 512 512" width="512pt" xmlns="http://www.w3.org/2000/svg"><path d="m166.070312 212.351562h179.972657v114.988282h-179.972657zm0 0" fill="#b0ac9b"/><path d="m255.699219 212.351562h90.339843v114.988282h-90.339843zm0 0" fill="#878477"/><path d="m166.070312 338.191406c-8.285156 0-15-6.714844-15-14.996094v-110.664062c0-8.28125 6.714844-14.996094 15-14.996094 8.28125 0 14.996094 6.714844 14.996094 14.996094v110.664062c0 8.28125-6.714844 14.996094-14.996094 14.996094zm0 0" fill="#e5e2d6"/><path d="m226.058594 327.339844c-8.28125 0-14.996094-6.714844-14.996094-14.996094v-99.8125c0-8.28125 6.714844-14.996094 14.996094-14.996094s14.996094 6.714844 14.996094 14.996094v99.8125c0 8.28125-6.714844 14.996094-14.996094 14.996094zm0 0" fill="#e5e2d6"/><path d="m286.050781 327.339844c-8.285156 0-15-6.714844-15-14.996094v-99.8125c0-8.28125 6.714844-14.996094 15-14.996094 8.28125 0 14.996094 6.714844 14.996094 14.996094v99.8125c0 8.28125-6.714844 14.996094-14.996094 14.996094zm0 0" fill="#c9c5b1"/><path d="m346.039062 338.191406c-8.28125 0-14.996093-6.714844-14.996093-14.996094v-110.664062c0-8.28125 6.714843-14.996094 14.996093-14.996094 8.285157 0 15 6.714844 15 14.996094v110.664062c0 8.28125-6.714843 14.996094-15 14.996094zm0 0" fill="#c9c5b1"/><path d="m147.566406 212.441406h216.953125l-108.457031-67.664062zm0 0" fill="#b0ac9b"/><path d="m255.679688 212.441406h108.839843l-108.457031-67.664062-.382812.238281zm0 0" fill="#878477"/><path d="m368.519531 227.347656h-224.96875c-6.691406 0-12.574219-4.433594-14.417969-10.871094-1.839843-6.433593.804688-13.308593 6.484376-16.851562l112.5-70.160156c4.859374-3.03125 11.019531-3.027344 15.875 0l112.464843 70.160156c5.675781 3.542969 8.320313 10.421875 6.480469 16.851562-1.84375 6.4375-7.726562 10.871094-14.417969 10.871094zm-172.578125-29.992187h120.207032l-60.09375-37.492188zm0 0" fill="#e5e2d6"/><path d="m376.457031 199.625-112.464843-70.160156c-2.539063-1.582032-5.433594-2.332032-8.3125-2.257813v32.890625l.375-.234375 60.09375 37.488281h-60.46875v29.996094h112.839843c6.691407 0 12.574219-4.4375 14.417969-10.871094 1.839844-6.429687-.804688-13.308593-6.480469-16.851562zm0 0" fill="#c9c5b1"/><path d="m.109375 424.03125v-153.152344h14.996094c18.894531 0 36.730469 8.683594 48.558593 22.953125 5.109376-1.621093 10.46875-2.453125 15.929688-2.453125 29.089844 0 52.761719 23.710938 52.761719 52.855469v8.976563zm0 0" fill="#ffcf2c"/><path d="m512 430.03125-132.246094-77.1875v-8.609375c0-29.144531 23.671875-52.855469 52.761719-52.855469 5.460937 0 10.816406.832032 15.929687 2.453125 11.828126-14.269531 29.664063-22.953125 48.558594-22.953125h14.996094zm0 0" fill="#ffcf2c"/><path d="m452.003906 30.070312h-10.261718c-3.390626-17.085937-18.507813-30.070312-36.507813-30.070312s-33.117187 12.984375-36.507813 30.070312h-39.59375c-16.496093 0-29.996093 13.53125-29.996093 30.066407 0 16.539062 13.5 30.070312 29.996093 30.070312h122.871094c16.5 0 29.996094-13.53125 29.996094-30.070312 0-16.535157-13.496094-30.066407-29.996094-30.066407zm0 0" fill="#ffe645"/><path d="m139.722656 53.261719c-4.089844-11.746094-15.265625-20.234375-28.332031-20.234375s-24.242187 8.488281-28.332031 20.234375c-14.941406 1.679687-26.660156 14.472656-26.660156 29.878906 0 16.539063 13.496093 30.070313 29.996093 30.070313h49.992188c16.496093 0 29.996093-13.53125 29.996093-30.070313 0-15.40625-11.71875-28.199219-26.660156-29.878906zm0 0" fill="#ffe645"/><path d="m511.359375 475.898438h-511.359375l.621094-85.917969 100.890625-54.578125c47.277343-25.574219 100.628906-39.078125 154.34375-39.078125.378906 0 .742187 0 1.121093.003906 54.097657.1875 107.761719 14.074219 155.1875 40.160156l99.195313 54.558594zm0 0" fill="#c9c5b1"/><path d="m256.976562 296.328125c-.378906-.003906-.742187-.003906-1.121093-.003906-.058594 0-.117188 0-.175781 0v179.574219h255.679687v-84.851563l-99.195313-54.558594c-47.425781-26.085937-101.089843-39.972656-155.1875-40.160156zm0 0" fill="#b0ac9b"/></svg>